<?xml version="1.0" encoding="utf-8"?>
<!-- Generator: Adobe Illustrator 23.0.0, SVG Export Plug-In . SVG Version: 6.00 Build 0)  -->
<svg version="1.1" id="Capa_1" xmlns="http://www.w3.org/2000/svg" xmlns:xlink="http://www.w3.org/1999/xlink" x="0px" y="0px"
	 viewBox="0 0 1920 600" style="enable-background:new 0 0 1920 600;" xml:space="preserve">
<style type="text/css">
	.st0{fill:none;stroke:#FFFFFF;stroke-width:0.25;stroke-miterlimit:10;}
	.st1{fill:none;stroke:#FFFFFF;stroke-width:0.3065;stroke-miterlimit:10;}
	.st2{fill:none;stroke:#FFFFFF;stroke-width:0.3629;stroke-miterlimit:10;}
	.st3{fill:none;stroke:#FFFFFF;stroke-width:0.4194;stroke-miterlimit:10;}
	.st4{fill:none;stroke:#FFFFFF;stroke-width:0.4758;stroke-miterlimit:10;}
	.st5{fill:none;stroke:#FFFFFF;stroke-width:0.5323;stroke-miterlimit:10;}
	.st6{fill:none;stroke:#FFFFFF;stroke-width:0.5887;stroke-miterlimit:10;}
	.st7{fill:none;stroke:#FFFFFF;stroke-width:0.6452;stroke-miterlimit:10;}
	.st8{fill:none;stroke:#FFFFFF;stroke-width:0.7016;stroke-miterlimit:10;}
	.st9{fill:none;stroke:#FFFFFF;stroke-width:0.7581;stroke-miterlimit:10;}
	.st10{fill:none;stroke:#FFFFFF;stroke-width:0.8145;stroke-miterlimit:10;}
	.st11{fill:none;stroke:#FFFFFF;stroke-width:0.871;stroke-miterlimit:10;}
	.st12{fill:none;stroke:#FFFFFF;stroke-width:0.9274;stroke-miterlimit:10;}
	.st13{fill:none;stroke:#FFFFFF;stroke-width:0.9839;stroke-miterlimit:10;}
	.st14{fill:none;stroke:#FFFFFF;stroke-width:1.0403;stroke-miterlimit:10;}
	.st15{fill:none;stroke:#FFFFFF;stroke-width:1.0968;stroke-miterlimit:10;}
	.st16{fill:none;stroke:#FFFFFF;stroke-width:1.1532;stroke-miterlimit:10;}
	.st17{fill:none;stroke:#FFFFFF;stroke-width:1.2097;stroke-miterlimit:10;}
	.st18{fill:none;stroke:#FFFFFF;stroke-width:1.2661;stroke-miterlimit:10;}
	.st19{fill:none;stroke:#FFFFFF;stroke-width:1.3226;stroke-miterlimit:10;}
	.st20{fill:none;stroke:#FFFFFF;stroke-width:1.379;stroke-miterlimit:10;}
	.st21{fill:none;stroke:#FFFFFF;stroke-width:1.4355;stroke-miterlimit:10;}
	.st22{fill:none;stroke:#FFFFFF;stroke-width:1.4919;stroke-miterlimit:10;}
	.st23{fill:none;stroke:#FFFFFF;stroke-width:1.5484;stroke-miterlimit:10;}
	.st24{fill:none;stroke:#FFFFFF;stroke-width:1.6048;stroke-miterlimit:10;}
	.st25{fill:none;stroke:#FFFFFF;stroke-width:1.6613;stroke-miterlimit:10;}
	.st26{fill:none;stroke:#FFFFFF;stroke-width:1.7177;stroke-miterlimit:10;}
	.st27{fill:none;stroke:#FFFFFF;stroke-width:1.7742;stroke-miterlimit:10;}
	.st28{fill:none;stroke:#FFFFFF;stroke-width:1.8306;stroke-miterlimit:10;}
	.st29{fill:none;stroke:#FFFFFF;stroke-width:1.8871;stroke-miterlimit:10;}
	.st30{fill:none;stroke:#FFFFFF;stroke-width:1.9435;stroke-miterlimit:10;}
	.st31{fill:none;stroke:#FFFFFF;stroke-width:2;stroke-miterlimit:10;}
</style>
<g id="XMLID_451_">
	<path id="XMLID_2_" class="st0" d="M2,431.3c0,0,140.2,265.6,426.6,265.6s513.8-458.8,738.7-458.8S1409.1,485,1919.8,485"/>
	<path class="st1" d="M2,426.7c0,0,139.9,251,425.5,251s510.5-432.1,738.7-432.1s247.4,220.6,753.6,220.6"/>
	<path class="st2" d="M2,422.1c0,0,139.6,236.5,424.5,236.5s507.2-405.4,738.7-405.4s253,194.3,754.7,194.3"/>
	<path class="st3" d="M2,417.5c0,0,139.4,221.9,423.4,221.9s503.9-378.6,738.7-378.6s258.6,168,755.8,168"/>
	<path class="st4" d="M2,412.9c0,0,139.1,207.3,422.3,207.3S925,268.3,1163,268.3S1427.2,410,1919.8,410"/>
	<path class="st5" d="M2,408.4c0,0,138.8,192.7,421.3,192.7s497.4-325.2,738.6-325.2s269.9,115.4,758,115.4"/>
	<path class="st6" d="M2,403.8c0,0,138.5,178.2,420.2,178.2s494.1-298.5,738.6-298.5s275.5,89.1,759.1,89.1"/>
	<path class="st7" d="M2,399.2c0,0,138.2,163.6,419.1,163.6S911.9,291,1159.7,291s281.2,62.8,760.2,62.8"/>
	<path class="st8" d="M2,394.6c0,0,137.9,149,418,149s487.5-245,738.5-245s286.8,36.5,761.3,36.5"/>
	<path class="st9" d="M2,390c0,0,137.6,134.4,416.9,134.4s484.2-218.3,738.5-218.3s292.4,10.2,762.4,10.2"/>
	<path class="st10" d="M2,385.4c0,0,137.4,119.8,415.9,119.8s480.9-191.6,738.5-191.6s298-16.1,763.5-16.1"/>
	<path class="st11" d="M2,380.8c0,0,137.1,105.3,414.8,105.3s477.6-164.9,738.4-164.9s303.7-42.4,764.6-42.4"/>
	<path class="st12" d="M2,376.3c0,0,136.8,90.7,413.7,90.7s474.3-138.1,738.4-138.1s309.3-68.8,765.7-68.8"/>
	<path class="st13" d="M2,371.7c0,0,136.5,76.1,412.6,76.1s471-111.4,738.4-111.4s314.9-95.1,766.8-95.1"/>
	<path class="st14" d="M2,367.1c0,0,136.2,61.5,411.6,61.5s467.8-84.7,738.4-84.7s320.6-121.4,767.9-121.4"/>
	<path class="st15" d="M2,362.5c0,0,135.9,46.9,410.5,46.9s464.5-58,738.3-58s326.2-147.7,769-147.7"/>
	<path class="st16" d="M2,357.9c0,0,135.7,32.4,409.4,32.4S872.6,359,1149.7,359s331.8-174,770.1-174"/>
	<path class="st17" d="M2,353.3c0,0,135.4,17.8,408.3,17.8s457.9-4.5,738.3-4.5s337.5-200.3,771.2-200.3"/>
	<path class="st18" d="M2,348.7c0,0,135.1,3.2,407.3,3.2s454.6,22.2,738.3,22.2s343.1-226.6,772.3-226.6"/>
	<path class="st19" d="M2,344.2c0,0,134.8-11.4,406.2-11.4s451.3,48.9,738.3,48.9s348.7-252.9,773.4-252.9"/>
	<path class="st20" d="M2,339.6c0,0,134.5-26,405.1-26s448,75.7,738.2,75.7s354.3-279.2,774.5-279.2"/>
	<path class="st21" d="M2,335c0,0,134.2-40.5,404-40.5s444.7,102.4,738.2,102.4s360-305.5,775.6-305.5"/>
	<path class="st22" d="M2,330.4c0,0,133.9-55.1,402.9-55.1s441.4,129.1,738.2,129.1s365.6-331.8,776.7-331.8"/>
	<path class="st23" d="M2,325.8c0,0,133.7-69.7,401.9-69.7S842,412,1142,412s371.2-358.1,777.8-358.1"/>
	<path class="st24" d="M2,321.2c0,0,133.4-84.3,400.8-84.3s434.9,182.6,738.1,182.6s376.9-384.4,778.9-384.4"/>
	<path class="st25" d="M2,316.6c0,0,133.1-98.8,399.7-98.8s431.6,209.3,738.1,209.3s382.5-410.7,780-410.7"/>
	<path class="st26" d="M2,312.1c0,0,132.8-113.4,398.6-113.4s428.3,236,738.1,236s388.1-437,781.1-437"/>
	<path class="st27" d="M2,307.5c0,0,132.5-128,397.6-128s425,262.7,738,262.7s393.8-463.3,782.2-463.3"/>
	<path class="st28" d="M2,302.9c0,0,132.2-142.6,396.5-142.6s421.7,289.5,738,289.5s399.4-489.6,783.3-489.6"/>
	<path class="st29" d="M2,298.3c0,0,131.9-157.1,395.4-157.1s418.4,316.2,738,316.2s405-515.9,784.4-515.9"/>
	<path class="st30" d="M2,293.7c0,0,131.7-171.7,394.3-171.7s415.1,342.9,738,342.9s410.6-542.2,785.5-542.2"/>
	<path id="XMLID_1_" class="st31" d="M2,289.1c0,0,131.4-186.3,393.3-186.3s411.8,369.6,737.9,369.6S1549.5-96,1919.8-96"/>
</g>
</svg>
