<?xml version="1.0" encoding="utf-8"?>
<!-- Generator: Adobe Illustrator 23.0.0, SVG Export Plug-In . SVG Version: 6.00 Build 0)  -->
<svg version="1.1" id="Capa_1" xmlns="http://www.w3.org/2000/svg" xmlns:xlink="http://www.w3.org/1999/xlink" x="0px" y="0px"
	 viewBox="0 0 1920 600" style="enable-background:new 0 0 1920 600;" xml:space="preserve">
<style type="text/css">
	.st0{fill:none;stroke:#C12621;stroke-width:0.25;stroke-miterlimit:10;}
	.st1{fill:none;stroke:#C12621;stroke-width:0.3065;stroke-miterlimit:10;}
	.st2{fill:none;stroke:#C12621;stroke-width:0.3629;stroke-miterlimit:10;}
	.st3{fill:none;stroke:#C12621;stroke-width:0.4194;stroke-miterlimit:10;}
	.st4{fill:none;stroke:#C12621;stroke-width:0.4758;stroke-miterlimit:10;}
	.st5{fill:none;stroke:#C12621;stroke-width:0.5323;stroke-miterlimit:10;}
	.st6{fill:none;stroke:#C12621;stroke-width:0.5887;stroke-miterlimit:10;}
	.st7{fill:none;stroke:#C12621;stroke-width:0.6452;stroke-miterlimit:10;}
	.st8{fill:none;stroke:#C12621;stroke-width:0.7016;stroke-miterlimit:10;}
	.st9{fill:none;stroke:#C12621;stroke-width:0.7581;stroke-miterlimit:10;}
	.st10{fill:none;stroke:#C12621;stroke-width:0.8145;stroke-miterlimit:10;}
	.st11{fill:none;stroke:#C12621;stroke-width:0.871;stroke-miterlimit:10;}
	.st12{fill:none;stroke:#C12621;stroke-width:0.9274;stroke-miterlimit:10;}
	.st13{fill:none;stroke:#C12621;stroke-width:0.9839;stroke-miterlimit:10;}
	.st14{fill:none;stroke:#C12621;stroke-width:1.0403;stroke-miterlimit:10;}
	.st15{fill:none;stroke:#C12621;stroke-width:1.0968;stroke-miterlimit:10;}
	.st16{fill:none;stroke:#C12621;stroke-width:1.1532;stroke-miterlimit:10;}
	.st17{fill:none;stroke:#C12621;stroke-width:1.2097;stroke-miterlimit:10;}
	.st18{fill:none;stroke:#C12621;stroke-width:1.2661;stroke-miterlimit:10;}
	.st19{fill:none;stroke:#C12621;stroke-width:1.3226;stroke-miterlimit:10;}
	.st20{fill:none;stroke:#C12621;stroke-width:1.379;stroke-miterlimit:10;}
	.st21{fill:none;stroke:#C12621;stroke-width:1.4355;stroke-miterlimit:10;}
	.st22{fill:none;stroke:#C12621;stroke-width:1.4919;stroke-miterlimit:10;}
	.st23{fill:none;stroke:#C12621;stroke-width:1.5484;stroke-miterlimit:10;}
	.st24{fill:none;stroke:#C12621;stroke-width:1.6048;stroke-miterlimit:10;}
	.st25{fill:none;stroke:#C12621;stroke-width:1.6613;stroke-miterlimit:10;}
	.st26{fill:none;stroke:#C12621;stroke-width:1.7177;stroke-miterlimit:10;}
	.st27{fill:none;stroke:#C12621;stroke-width:1.7742;stroke-miterlimit:10;}
	.st28{fill:none;stroke:#C12621;stroke-width:1.8306;stroke-miterlimit:10;}
	.st29{fill:none;stroke:#C12621;stroke-width:1.8871;stroke-miterlimit:10;}
	.st30{fill:none;stroke:#C12621;stroke-width:1.9435;stroke-miterlimit:10;}
	.st31{fill:none;stroke:#C12621;stroke-width:2;stroke-miterlimit:10;}
</style>
<g id="XMLID_451_">
	<path id="XMLID_2_" class="st0" d="M2.01,431.28c0,0,140.22,265.61,426.63,265.61s513.82-458.81,738.73-458.81
		s241.76,246.89,752.45,246.89"/>
	<path class="st1" d="M2.01,426.69c0,0,139.94,251.04,425.55,251.04s510.53-432.08,738.71-432.08s247.39,220.59,753.55,220.59"/>
	<path class="st2" d="M2.01,422.11c0,0,139.65,236.46,424.48,236.46S933.73,253.2,1165.17,253.2s253.02,194.28,754.65,194.28"/>
	<path class="st3" d="M2.01,417.52c0,0,139.36,221.88,423.4,221.88s503.95-378.64,738.65-378.64s258.64,167.98,755.75,167.98"/>
	<path class="st4" d="M2.01,412.94c0,0,139.08,207.3,422.32,207.3s500.66-351.91,738.63-351.91S1427.24,410,1919.82,410"/>
	<path class="st5" d="M2.01,408.35c0,0,138.79,192.72,421.25,192.72s497.37-325.19,738.6-325.19s269.9,115.37,757.96,115.37"/>
	<path class="st6" d="M2.01,403.76c0,0,138.51,178.15,420.17,178.15s494.08-298.46,738.58-298.46s275.53,89.07,759.06,89.07"/>
	<path class="st7" d="M2.01,399.18c0,0,138.22,163.57,419.09,163.57s490.79-271.74,738.55-271.74s281.16,62.77,760.16,62.77"/>
	<path class="st8" d="M2.01,394.59c0,0,137.94,148.99,418.02,148.99s487.5-245.02,738.53-245.02s286.79,36.47,761.26,36.47"/>
	<path class="st9" d="M2.01,390.01c0,0,137.65,134.41,416.94,134.41s484.21-218.29,738.5-218.29s292.42,10.16,762.37,10.16"/>
	<path class="st10" d="M2.01,385.42c0,0,137.37,119.83,415.86,119.83s480.92-191.57,738.48-191.57s298.05-16.14,763.47-16.14"/>
	<path class="st11" d="M2.01,380.84c0,0,137.08,105.26,414.79,105.26s477.63-164.85,738.45-164.85s303.68-42.44,764.57-42.44"/>
	<path class="st12" d="M2.01,376.25c0,0,136.8,90.68,413.71,90.68s474.34-138.12,738.43-138.12s309.31-68.75,765.67-68.75"/>
	<path class="st13" d="M2.01,371.67c0,0,136.51,76.1,412.63,76.1s471.05-111.4,738.4-111.4s314.94-95.05,766.77-95.05"/>
	<path class="st14" d="M2.01,367.08c0,0,136.23,61.52,411.56,61.52s467.76-84.68,738.38-84.68s320.57-121.35,767.87-121.35"/>
	<path class="st15" d="M2.01,362.5c0,0,135.94,46.94,410.48,46.94s464.47-57.95,738.35-57.95s326.2-147.66,768.98-147.66"/>
	<path class="st16" d="M2.01,357.91c0,0,135.66,32.36,409.4,32.36s461.18-31.23,738.33-31.23s331.83-173.96,770.08-173.96"/>
	<path class="st17" d="M2.01,353.33c0,0,135.37,17.79,408.33,17.79s457.89-4.51,738.3-4.51s337.45-200.26,771.18-200.26"/>
	<path class="st18" d="M2.01,348.74c0,0,135.08,3.21,407.25,3.21s454.6,22.22,738.28,22.22s343.08-226.56,772.28-226.56"/>
	<path class="st19" d="M2.01,344.16c0,0,134.8-11.37,406.17-11.37s451.31,48.94,738.25,48.94s348.71-252.87,773.38-252.87"/>
	<path class="st20" d="M2.01,339.57c0,0,134.51-25.95,405.1-25.95s448.02,75.66,738.23,75.66s354.34-279.17,774.49-279.17"/>
	<path class="st21" d="M2.01,334.99c0,0,134.23-40.53,404.02-40.53s444.73,102.39,738.2,102.39s359.97-305.47,775.59-305.47"/>
	<path class="st22" d="M2.01,330.4c0,0,133.94-55.1,402.94-55.1s441.44,129.11,738.18,129.11s365.6-331.78,776.69-331.78"/>
	<path class="st23" d="M2.01,325.82c0,0,133.66-69.68,401.87-69.68s438.15,155.84,738.15,155.84c300,0,371.23-358.08,777.79-358.08"
		/>
	<path class="st24" d="M2.01,321.23c0,0,133.37-84.26,400.79-84.26s434.86,182.56,738.13,182.56s376.86-384.38,778.89-384.38"/>
	<path class="st25" d="M2.01,316.65c0,0,133.09-98.84,399.71-98.84s431.57,209.28,738.1,209.28s382.49-410.68,779.99-410.68"/>
	<path class="st26" d="M2.01,312.06c0,0,132.8-113.42,398.64-113.42s428.28,236.01,738.08,236.01S1526.84-2.34,1919.82-2.34"/>
	<path class="st27" d="M2.01,307.48c0,0,132.52-127.99,397.56-127.99s424.99,262.73,738.05,262.73s393.75-463.29,782.2-463.29"/>
	<path class="st28" d="M2.01,302.89c0,0,132.23-142.57,396.48-142.57s421.7,289.45,738.03,289.45s399.38-489.59,783.3-489.59"/>
	<path class="st29" d="M2.01,298.31c0,0,131.95-157.15,395.41-157.15s418.41,316.18,738,316.18s405.01-515.9,784.4-515.9"/>
	<path class="st30" d="M2.01,293.72c0,0,131.66-171.73,394.33-171.73s415.12,342.9,737.97,342.9s410.64-542.2,785.5-542.2"/>
	<path id="XMLID_1_" class="st31" d="M2.01,289.14c0,0,131.38-186.31,393.25-186.31s411.83,369.62,737.95,369.62
		s416.27-568.5,786.61-568.5"/>
</g>
</svg>
